<svg xmlns:xlink="http://www.w3.org/1999/xlink" width="64" xmlns="http://www.w3.org/2000/svg" height="64" id="screenshot-2b32da80-fd65-11ec-80b8-01454ac7d2a2" viewBox="0 0 64 64" style="-webkit-print-color-adjust: exact;" fill="none" version="1.1"><g id="shape-2b32da80-fd65-11ec-80b8-01454ac7d2a2" rx="0" ry="0" style="fill: rgb(0, 0, 0);"><g id="shape-2b334fb0-fd65-11ec-80b8-01454ac7d2a2"><g id="fills-2b334fb0-fd65-11ec-80b8-01454ac7d2a2"><path rx="0" ry="0" d="M50.666666666666515,0L13.333333333333258,0C5.9731915973079595,0.008816310225483903,0.008816310225483903,5.9731915973079595,0,13.333333333333258L0,50.66666666666697C0.008816310224574408,58.026808402690676,5.973191597306368,63.99118368977361,13.333333333331666,64L50.666666666666515,64C58.02680840269204,63.991183689774516,63.991183689774516,58.02680840269204,64,50.66666666666697L64,13.333333333333258C63.991183689775426,5.973191597309324,58.026808402693405,0.008816310226393398,50.666666666666515,0ZZM47.2826666666665,28.26666666666665L33.71733333333327,42C33.26570105477958,42.462622989236934,32.64652281104509,42.723466009225376,32,42.723466009225376C31.353477188954685,42.723466009225376,30.73429894522019,42.462622989236934,30.2826666666665,42L16.717333333333272,28.26666666666665C16.02019652246713,27.564627563742988,15.810578543723977,26.51368997556233,16.18502911320502,25.59791412628806C16.559479682685833,24.68213827701402,17.445372484264453,24.07914287456515,18.434666666666544,24.066666666666606L45.56533333333323,24.066666666666606C46.55462751573532,24.07914287456515,47.44052031731394,24.68213827701402,47.81497088679498,25.59791412628806C48.189421456275795,26.51368997556233,47.97980347753264,27.564627563742988,47.2826666666665,28.26666666666665ZZ" style="fill: rgb(0, 147, 217);"/></g></g></g></svg>