<?xml version="1.0" standalone="no"?>
<!DOCTYPE svg PUBLIC "-//W3C//DTD SVG 20010904//EN"
 "http://www.w3.org/TR/2001/REC-SVG-20010904/DTD/svg10.dtd">
<svg version="1.0" xmlns="http://www.w3.org/2000/svg"
 width="1280.000000pt" height="1280.000000pt" viewBox="0 0 1280.000000 1280.000000"
 preserveAspectRatio="xMidYMid meet">
<metadata>
Created by potrace 1.15, written by Peter Selinger 2001-2017
</metadata>
<g transform="translate(0.000000,1280.000000) scale(0.100000,-0.100000)"
fill="#000000" stroke="none">
<path d="M6010 12794 c-25 -2 -103 -9 -175 -15 -143 -12 -390 -49 -503 -74
l-72 -17 0 -529 0 -530 -139 -207 c-158 -234 -272 -376 -371 -461 -174 -150
-329 -225 -570 -277 -67 -15 -129 -18 -290 -18 -216 0 -338 13 -540 59 l-103
23 -366 366 -367 367 -139 -112 c-409 -327 -760 -689 -1070 -1102 l-58 -78
355 -357 356 -357 40 -105 c99 -258 137 -439 137 -655 0 -152 -9 -214 -47
-339 -97 -315 -393 -608 -871 -861 l-104 -55 -510 0 c-437 0 -512 -2 -516 -14
-10 -26 -55 -336 -69 -471 -8 -82 -13 -266 -12 -495 0 -373 10 -553 54 -954
11 -99 20 -183 20 -188 0 -4 227 -8 504 -8 l503 0 84 -34 c417 -169 661 -374
800 -672 141 -299 140 -732 -2 -1218 l-21 -71 -356 -357 -356 -357 27 -40 c45
-68 219 -281 350 -427 251 -282 517 -537 771 -740 l130 -105 371 371 371 370
79 10 c142 17 511 23 645 11 434 -40 741 -184 989 -464 75 -86 193 -261 250
-373 l41 -81 0 -525 0 -525 103 -16 c144 -23 406 -54 577 -69 189 -17 765 -16
935 0 137 14 468 59 498 68 16 5 17 39 17 538 l0 532 46 95 c141 290 366 525
634 659 117 59 291 114 445 141 113 20 164 23 385 24 154 0 302 -5 375 -14
l120 -13 397 -400 398 -401 37 29 c85 63 356 286 468 384 302 265 573 556 755
813 l34 48 -397 397 -397 397 -34 170 c-59 293 -70 384 -70 585 -1 143 4 204
18 270 48 220 136 387 291 549 142 149 293 255 533 375 l132 66 575 0 575 0 5
23 c7 35 34 248 50 407 52 515 43 1075 -26 1529 -11 75 -22 144 -25 154 -5 16
-42 17 -589 17 l-584 0 -128 64 c-540 271 -784 609 -818 1136 -10 155 22 485
75 760 l10 55 405 405 405 405 -64 93 c-205 303 -507 614 -872 897 -182 143
-372 278 -382 273 -5 -1 -184 -174 -396 -383 -279 -274 -397 -384 -424 -393
-20 -8 -100 -27 -177 -43 -747 -155 -1306 99 -1725 786 l-60 99 0 553 c0 455
-2 553 -13 553 -8 0 -94 9 -193 20 -364 40 -536 51 -829 54 -165 2 -320 2
-345 0z m725 -4200 c242 -29 482 -102 720 -219 252 -124 440 -260 636 -461
291 -300 495 -679 589 -1095 65 -289 67 -678 4 -964 -181 -817 -764 -1463
-1548 -1714 -241 -77 -425 -105 -691 -105 -372 0 -669 68 -1000 229 -332 161
-616 393 -826 675 -113 152 -159 227 -239 392 -117 239 -193 507 -221 777 -16
153 -6 431 20 586 123 727 562 1329 1214 1665 420 217 856 293 1342 234z"/>
</g>
</svg>
