<svg xmlns:xlink="http://www.w3.org/1999/xlink" width="64" xmlns="http://www.w3.org/2000/svg" height="64" id="screenshot-1c378e90-fd65-11ec-80b8-01454ac7d2a2" viewBox="0 0 64 64" style="-webkit-print-color-adjust: exact;" fill="none" version="1.1"><g id="shape-1c378e90-fd65-11ec-80b8-01454ac7d2a2" rx="0" ry="0" style="fill: rgb(0, 0, 0);"><g id="shape-1c3803c0-fd65-11ec-80b8-01454ac7d2a2"><g id="fills-1c3803c0-fd65-11ec-80b8-01454ac7d2a2"><path rx="0" ry="0" d="M13.333333333333485,64L50.66666666666674,64C58.02680840269204,63.99118368977463,63.99118368977463,58.02680840269227,64,50.66666666666674L64,13.333333333333599C63.991183689775426,5.973191597309551,58.02680840269352,0.008816310226393398,50.66666666666822,0L13.333333333333485,0C5.973191597308073,0.008816310225711277,0.00881631022559759,5.973191597308073,0,13.333333333333599L0,50.66666666666674C0.008816310224688095,58.02680840269079,5.9731915973064815,63.99118368977361,13.333333333333485,64ZZM16.717333333333272,35.73333333333346L30.282666666666614,22C30.734298945220416,21.537377010763294,31.3534771889548,21.27653399077485,32,21.27653399077485C32.6465228110452,21.27653399077485,33.26570105477981,21.537377010763294,33.71733333333327,22L47.282666666666614,35.73333333333346C47.97980347753287,36.435372436257126,48.18942145627602,37.48631002443801,47.81497088679498,38.40208587371217C47.44052031731405,39.31786172298598,46.55462751573543,39.92085712543485,45.56533333333334,39.93333333333362L18.434666666666658,39.93333333333362C17.445372484264567,39.92085712543485,16.55947968268606,39.31786172298598,16.185029113205132,38.40208587371217C15.810578543723977,37.48631002443801,16.02019652246736,36.435372436257126,16.717333333333272,35.73333333333346ZZ" style="fill: rgb(0, 147, 217);"/></g></g></g></svg>